<?xml version="1.0" encoding="iso-8859-1"?>
<!-- Uploaded to: SVG Repo, www.svgrepo.com, Generator: SVG Repo Mixer Tools -->
<svg version="1.1" id="Layer_1" xmlns="http://www.w3.org/2000/svg" xmlns:xlink="http://www.w3.org/1999/xlink" 
	 viewBox="0 0 512 512" xml:space="preserve">
<path style="fill:#70E5CF;" d="M388.826,248.969c-32.453,55.665-99.035,79.056-157.764,59.136
	c-8.356-2.837-16.556-6.548-24.468-11.157c-63.565-37.074-85.053-118.655-47.979-182.221
	c33.902-58.143,105.032-81.079,165.569-56.215c5.662,2.322,11.229,5.064,16.663,8.236
	C404.412,103.822,425.888,185.404,388.826,248.969z"/>
<path style="fill:#35D8B9;" d="M255.204,306.509c-8.356-2.837-16.556-6.548-24.468-11.157
	c-63.565-37.074-85.053-118.655-47.979-182.221c22.21-38.09,60.398-61.068,101.118-65.398
	c-50.577-5.371-101.968,18.61-129.249,65.398c-37.074,63.565-15.586,145.147,47.979,182.221c7.913,4.609,16.113,8.32,24.468,11.157
	c18.532,6.286,37.845,8.248,56.622,6.256C274.11,311.745,264.558,309.682,255.204,306.509z"/>
<path style="fill:#F95428;" d="M355.974,32.365c81.677,47.632,109.27,152.461,61.638,234.126
	c-47.632,81.677-152.449,109.282-234.126,61.65S74.204,175.68,121.836,94.014C169.468,12.337,274.297-15.268,355.974,32.365z
	 M384.836,247.373c37.062-63.565,15.586-145.147-47.979-182.221c-63.577-37.074-145.159-15.598-182.233,47.979
	c-37.074,63.565-15.586,145.147,47.979,182.221S347.762,310.951,384.836,247.373z"/>
<path style="fill:#E6E6E6;" d="M219.77,349.305c8.763,5.112,11.719,16.352,6.608,25.115l-1.855,3.184
	c-5.112,8.763-16.352,11.731-25.115,6.62l-15.921-9.277l-38.594-22.517l-15.909-9.277c-8.763-5.112-11.731-16.352-6.62-25.115
	l1.867-3.196c5.1-8.763,16.352-11.719,25.115-6.608l34.141,19.908L219.77,349.305z"/>
<path style="fill:#B3B3B3;" d="M144.892,352.43l38.594,22.517l-58.765,112.778c-7.338,14.066-24.78,19.405-38.738,11.851
	c-9.553-5.183-14.892-14.976-14.892-25.019c0-5.291,1.484-10.642,4.585-15.43L144.892,352.43z"/>
<g>
	<path style="fill:#E6E6E6;" d="M269.724,93.56c13.778,0,24.959,11.169,24.959,24.959c0,13.778-11.181,24.947-24.959,24.947
		c-13.778,0-24.947-11.169-24.947-24.947C244.777,104.728,255.946,93.56,269.724,93.56z"/>
	<rect x="248.059" y="173.937" style="fill:#E6E6E6;" width="43.335" height="81.761"/>
</g>
<g>
	<path style="fill:#333333;" d="M360.493,24.609C318.92,0.364,270.392-6.239,223.852,6.014s-85.523,41.898-109.768,83.472
		S83.236,179.587,95.49,226.127c7.065,26.834,19.921,51.147,37.501,71.579c-6.714,1.806-12.75,6.148-16.521,12.615l-1.86,3.19
		c-7.596,13.024-3.178,29.801,9.847,37.398l7.777,4.536l-64.086,98.79c-5.659,8.723-7.432,19.505-4.865,29.581
		c2.567,10.076,9.282,18.696,18.426,23.65C87.262,510.474,93.332,512,99.465,512c3.677,0,7.378-0.548,10.999-1.657
		c9.659-2.957,17.55-9.518,22.219-18.476l54.421-104.427l7.78,4.537l0,0c4.321,2.52,9.054,3.717,13.729,3.717
		c9.416,0,18.593-4.861,23.669-13.565l1.859-3.188c3.68-6.31,4.682-13.674,2.822-20.738c-0.075-0.286-0.181-0.557-0.265-0.838
		c10.867,2.016,21.82,3.026,32.73,3.025c62.039-0.004,122.503-32.026,155.946-89.373C475.42,185.197,446.315,74.658,360.493,24.609z
		 M116.757,483.569c-2.426,4.657-6.529,8.067-11.549,9.604c-5.022,1.536-10.328,1.007-14.947-1.496
		c-4.823-2.612-8.224-6.978-9.578-12.293c-1.354-5.315-0.455-10.776,2.529-15.378l64.551-99.507l23.81,13.885L116.757,483.569z
		 M218.627,369.897l-1.859,3.188c-2.608,4.471-8.369,5.988-12.841,3.381l0,0l-70.426-41.07c-4.472-2.608-5.989-8.369-3.382-12.841
		l1.86-3.189c2.607-4.472,8.366-5.989,12.84-3.381l70.426,41.07C219.72,359.665,221.235,365.425,218.627,369.897z M409.859,261.973
		c-45.062,77.268-144.585,103.471-221.852,58.411c-37.431-21.828-64.12-56.926-75.153-98.829
		c-11.032-41.902-5.088-85.593,16.741-123.023c21.828-37.431,56.926-64.121,98.829-75.153c13.762-3.624,27.71-5.414,41.574-5.414
		c28.346,0,56.313,7.497,81.45,22.157C428.717,85.181,454.921,184.705,409.859,261.973z"/>
	<path style="fill:#333333;" d="M341.375,57.394c-32.817-19.138-71.12-24.35-107.86-14.677
		c-36.737,9.672-67.51,33.072-86.646,65.889c-19.138,32.817-24.35,71.123-14.677,107.86s33.072,67.51,65.89,86.646
		c22.041,12.853,46.556,19.425,71.411,19.425c12.152,0,24.385-1.572,36.449-4.748c36.737-9.672,67.51-33.072,86.646-65.889
		C432.092,184.155,409.119,96.901,341.375,57.394z M377.074,242.854c-34.518,59.191-110.757,79.264-169.948,44.745
		c-59.191-34.518-79.264-110.757-44.746-169.948c23.068-39.555,64.762-61.64,107.555-61.64c21.242,0,42.759,5.444,62.393,16.896
		C391.521,107.424,411.594,183.663,377.074,242.854z"/>
	<path style="fill:#333333;" d="M269.727,152.444c18.709,0,33.93-15.221,33.93-33.93s-15.221-33.93-33.93-33.93
		s-33.93,15.221-33.93,33.93S251.019,152.444,269.727,152.444z M269.727,102.54c8.808,0,15.974,7.166,15.974,15.974
		s-7.166,15.974-15.974,15.974s-15.974-7.166-15.974-15.974S260.92,102.54,269.727,102.54z"/>
	<path style="fill:#333333;" d="M309.867,246.721h-9.493v-72.794c0-4.958-4.02-8.978-8.978-8.978h-61.809
		c-4.958,0-8.978,4.02-8.978,8.978s4.02,8.978,8.978,8.978h9.494v63.815h-9.494c-4.958,0-8.978,4.02-8.978,8.978
		s4.02,8.978,8.978,8.978h80.28c4.958,0,8.978-4.02,8.978-8.978S314.826,246.721,309.867,246.721z M282.418,246.721h-25.382v-63.816
		h25.382V246.721z"/>
</g>
</svg>